<svg xmlns="http://www.w3.org/2000/svg" viewBox="0 0 64 64" fill="none" role="img" aria-label="RAIS">
  <path
    d="M32 8 L54 28 L54 56 L10 56 L10 28 Z"
    stroke="#2F2A24"
    stroke-width="4"
    stroke-linejoin="round"
    stroke-linecap="round"
  />
  <path
    d="M44 8 L44 20 L54 28"
    stroke="#2F2A24"
    stroke-width="4"
    stroke-linejoin="round"
    stroke-linecap="round"
  />
  <path d="M10 56 L22 56" stroke="#2F2A24" stroke-width="4" stroke-linecap="round" />
  <path d="M42 56 L54 56" stroke="#2F2A24" stroke-width="4" stroke-linecap="round" />
  <path d="M32 56 L32 38" stroke="#2F2A24" stroke-width="3.5" stroke-linecap="round" />
  <path d="M32 38 L32 24" stroke="#2F2A24" stroke-width="3.5" stroke-linecap="round" />
  <path d="M32 38 L20 28" stroke="#2F2A24" stroke-width="3.5" stroke-linecap="round" stroke-linejoin="round" />
  <path d="M32 38 L44 28" stroke="#2F2A24" stroke-width="3.5" stroke-linecap="round" stroke-linejoin="round" />
  <path d="M32 56 L20 44" stroke="#2F2A24" stroke-width="3.5" stroke-linecap="round" stroke-linejoin="round" />
  <path d="M32 56 L44 44" stroke="#2F2A24" stroke-width="3.5" stroke-linecap="round" stroke-linejoin="round" />
  <circle cx="32" cy="56" r="4.5" fill="#EC6A37" />
  <circle cx="32" cy="38" r="4.5" fill="#EC6A37" />
  <circle cx="32" cy="24" r="4.5" fill="#EC6A37" />
  <circle cx="20" cy="28" r="4.5" fill="#EC6A37" />
  <circle cx="44" cy="28" r="4.5" fill="#EC6A37" />
  <circle cx="20" cy="44" r="4.5" fill="#EC6A37" />
  <circle cx="44" cy="44" r="4.5" fill="#EC6A37" />
</svg>
